<?xml version="1.0" encoding="UTF-8"?>
<svg width="1920px" height="1080px" viewBox="0 0 1920 1080" version="1.1" xmlns="http://www.w3.org/2000/svg" xmlns:xlink="http://www.w3.org/1999/xlink">
    <title>Bg</title>
    <defs>
        <rect id="path-1" x="0" y="0" width="1920" height="1080"></rect>
    </defs>
    <g id="页面-1" stroke="none" stroke-width="1" fill="none" fill-rule="evenodd">
        <g id="Bg">
            <mask id="mask-2" fill="white">
                <use xlink:href="#path-1"></use>
            </mask>
            <use id="Mask" fill="#F7F8FB" xlink:href="#path-1"></use>
            <path d="M979.583615,-800.429516 L2379.37085,-800.615683 C2434.59932,-800.649624 2479.3768,-755.884054 2479.38415,-700.655579 C2479.38415,-700.646713 2479.38415,-700.637847 2479.35755,-700.628984 L2479.17138,699.158252 C2479.13744,754.376336 2434.37617,799.137604 2379.15808,799.171551 L979.370849,799.357718 C924.142378,799.391659 879.364899,754.626088 879.357554,699.397614 C879.357553,699.388747 879.357553,699.379881 879.38415,699.371018 L879.570316,-700.416218 C879.604263,-755.634301 924.365531,-800.39557 979.583615,-800.429516 Z" id="Rectangle-4" fill="#FFD657" mask="url(#mask-2)" transform="translate(1679.370850, -0.628983) rotate(45.000000) translate(-1679.370850, 0.628983) "></path>
            <path d="M1390.98635,38.7854204 L2524.14238,38.6347147 C2579.37085,38.6007738 2624.14833,83.3663439 2624.15567,138.594818 C2624.15567,138.603685 2624.15567,138.612551 2624.12908,138.621414 L2623.97837,1271.77744 C2623.94442,1326.99553 2579.18315,1371.7568 2523.96507,1371.79074 L1390.80904,1371.94145 C1335.58057,1371.97539 1290.80309,1327.20982 1290.79575,1271.98135 C1290.79574,1271.97248 1290.79574,1271.96361 1290.82234,1271.95475 L1290.97305,138.798719 C1291.00699,83.5806356 1335.76826,38.819367 1390.98635,38.7854204 Z" id="Rectangle" fill="#FFD657" opacity="0.7" style="mix-blend-mode: screen;" mask="url(#mask-2)" transform="translate(1957.475708, 705.288082) rotate(45.000000) translate(-1957.475708, -705.288082) "></path>
            <path d="M1112.31968,-982.560956 L2245.47571,-982.711662 C2300.70418,-982.745602 2345.48166,-937.980032 2345.489,-882.751558 C2345.48901,-882.742691 2345.48901,-882.733825 2345.46241,-882.724962 L2345.3117,250.431068 C2345.27776,305.649152 2300.51649,350.41042 2245.2984,350.444367 L1112.14237,350.595073 C1056.9139,350.629013 1012.13642,305.863443 1012.12908,250.634969 C1012.12908,250.626102 1012.12908,250.617236 1012.15567,250.608373 L1012.30638,-882.547657 C1012.34033,-937.765741 1057.1016,-982.527009 1112.31968,-982.560956 Z" id="Rectangle" fill="#FFD657" opacity="0.6" style="mix-blend-mode: screen;" mask="url(#mask-2)" transform="translate(1678.809042, -316.058294) rotate(45.000000) translate(-1678.809042, 316.058294) "></path>
            <path d="M-87.680321,-723.678409 L1045.47571,-723.829115 C1100.70418,-723.863056 1145.48166,-679.097486 1145.489,-623.869011 C1145.48901,-623.860145 1145.48901,-623.851278 1145.46241,-623.842416 L1145.3117,509.313615 C1145.27776,564.531698 1100.51649,609.292967 1045.2984,609.326913 L-87.857626,609.477619 C-143.086097,609.51156 -187.863576,564.74599 -187.870921,509.517515 C-187.870922,509.508649 -187.870922,509.499782 -187.844325,509.490919 L-187.69362,-623.665111 C-187.659673,-678.883194 -142.898405,-723.644463 -87.680321,-723.678409 Z" id="Rectangle" fill="#FFD657" opacity="0.503622583" style="mix-blend-mode: screen;" mask="url(#mask-2)" transform="translate(478.809042, -57.175748) rotate(45.000000) translate(-478.809042, 57.175748) "></path>
        </g>
    </g>
</svg>