<?xml version="1.0" encoding="UTF-8"?>
<svg width="24px" height="24px" viewBox="0 0 24 24" version="1.1" xmlns="http://www.w3.org/2000/svg" xmlns:xlink="http://www.w3.org/1999/xlink">
    <title>Icons / cloud</title>
    <g id="Icons-/-cloud" stroke="none" stroke-width="1" fill="none" fill-rule="evenodd" fill-opacity="0.8">
        <path d="M12,1 C18.0751322,1 23,5.92486775 23,12 C23,18.0751322 18.0751322,23 12,23 C5.92486775,23 1,18.0751322 1,12 C1,5.92486775 5.92486775,1 12,1 Z M12,2.7 C6.86375183,2.7 2.7,6.86375183 2.7,12 C2.7,17.1362482 6.86375183,21.3 12,21.3 C17.1362482,21.3 21.3,17.1362482 21.3,12 C21.3,6.86375183 17.1362482,2.7 12,2.7 Z M11.8867277,16.7115385 C12.2368421,16.7115385 12.5251716,16.8076923 12.7723112,17.0384615 C12.9988558,17.25 13.1224256,17.5192308 13.1224256,17.8461538 C13.1224256,18.1923077 12.9988558,18.4615385 12.7723112,18.6730769 C12.5251716,18.8846154 12.2162471,19 11.8867277,19 C11.5160183,19 11.2276888,18.8846154 11.0011442,18.6730769 C10.7540046,18.4423077 10.6304348,18.1730769 10.6304348,17.8461538 C10.6304348,17.5192308 10.7540046,17.25 11.0011442,17.0384615 C11.2276888,16.8076923 11.5160183,16.7115385 11.8867277,16.7115385 Z M12.1750572,5 C13.493135,5 14.5640732,5.32692308 15.3466819,6.01923077 C16.1086957,6.67307692 16.5,7.57692308 16.5,8.73076923 C16.5,9.59615385 16.2322654,10.3461538 15.7379863,10.9807692 C15.5320366,11.2115385 14.9553776,11.7115385 14.0491991,12.4615385 C13.6167048,12.8076923 13.3077803,13.1538462 13.1018307,13.5 C12.8340961,13.9230769 12.7105263,14.4038462 12.7105263,14.9230769 L12.7105263,14.9230769 L12.7105263,15.3653846 L11.0423341,15.3653846 L11.0423341,14.9230769 C11.0423341,14.2884615 11.1659039,13.7307692 11.4336384,13.25 C11.701373,12.6730769 12.4016018,11.9423077 13.51373,11.0192308 C13.8432494,10.7115385 14.0697941,10.4807692 14.2139588,10.3269231 C14.6052632,9.84615385 14.8112128,9.34615385 14.8112128,8.80769231 C14.8112128,8.03846154 14.5846682,7.44230769 14.1315789,7.01923077 C13.6372998,6.55769231 12.9576659,6.34615385 12.0926773,6.34615385 C11.083524,6.34615385 10.3215103,6.65384615 9.80663616,7.28846154 C9.37414188,7.82692308 9.14759725,8.55769231 9.14759725,9.5 L9.14759725,9.5 L7.5,9.5 C7.5,8.15384615 7.91189931,7.07692308 8.71510297,6.26923077 C9.55949657,5.42307692 10.7128146,5 12.1750572,5 Z" id="形状结合" fill="#000000"></path>
    </g>
</svg>