<?xml version="1.0" encoding="UTF-8"?>
<svg width="14px" height="8px" viewBox="0 0 14 8" version="1.1" xmlns="http://www.w3.org/2000/svg" xmlns:xlink="http://www.w3.org/1999/xlink">
    <title>Icons / 公用 / 搜索框备份 2</title>
    <g id="页面-1" stroke="none" stroke-width="1" fill="none" fill-rule="evenodd" fill-opacity="0.8">
        <g id="考核文件" transform="translate(-1029.000000, -482.000000)" fill="#000000">
            <g id="编组-6" transform="translate(332.000000, 451.000000)">
                <g id="编组-8" transform="translate(541.000000, 19.000000)">
                    <g id="Icons-/-公用-/-搜索框备份-2" transform="translate(155.000000, 8.000000)">
                        <path d="M11.4028233,8.62706513 L5.87122375,14.0733615 C5.51934721,14.4199906 4.9488397,14.4199906 4.59713398,14.0733615 C4.24539979,13.7270407 4.24539979,13.1653417 4.59713398,12.819049 L9.49174559,7.99990889 L4.59727633,3.18093698 C4.24554214,2.83447605 4.24554214,2.27283313 4.59727633,1.92651237 C4.94901053,1.58005143 5.51948956,1.58005143 5.87136611,1.92651237 L11.4029657,7.37289282 C11.5788328,7.5461373 11.6666667,7.77295301 11.6666667,7.99988086 C11.6666667,8.22692084 11.5786619,8.45390475 11.4028233,8.62706513 Z" id="Shape" transform="translate(8.000000, 8.000000) rotate(-270.000000) translate(-8.000000, -8.000000) "></path>
                    </g>
                </g>
            </g>
        </g>
    </g>
</svg>