<?xml version="1.0" encoding="UTF-8"?>
<svg width="52px" height="52px" viewBox="0 0 52 52" version="1.1" xmlns="http://www.w3.org/2000/svg" xmlns:xlink="http://www.w3.org/1999/xlink">
    <title>Icons / tabbar / reading/ 选中备份 9</title>
    <g id="页面-1" stroke="none" stroke-width="1" fill="none" fill-rule="evenodd" fill-opacity="0.2">
        <g id="考核文件" transform="translate(-934.000000, -660.000000)" fill="#000000" fill-rule="nonzero">
            <g id="编组-20" transform="translate(858.000000, 650.000000)">
                <g id="Icons-/-tabbar-/-reading/-选中备份-9" transform="translate(70.000000, 4.000000)">
                    <path d="M33.6666667,6.66666667 C34.2189514,6.66666667 34.6666667,7.11438192 34.6666667,7.66666667 L34.6666667,29.3326667 L56.3333333,29.3333333 C56.8856181,29.3333333 57.3333333,29.7810486 57.3333333,30.3333333 L57.3333333,33.6666667 C57.3333333,34.2189514 56.8856181,34.6666667 56.3333333,34.6666667 L34.6666667,34.6666667 L34.6666667,56.3333333 C34.6666667,56.8856181 34.2189514,57.3333333 33.6666667,57.3333333 L30.3333333,57.3333333 C29.7810486,57.3333333 29.3333333,56.8856181 29.3333333,56.3333333 L29.3326667,34.6666667 L7.66666667,34.6666667 C7.11438192,34.6666667 6.66666667,34.2189514 6.66666667,33.6666667 L6.66666667,30.3333333 C6.66666667,29.7810486 7.11438192,29.3333333 7.66666667,29.3333333 L29.3326667,29.3326667 L29.3333333,7.66666667 C29.3333333,7.11438192 29.7810486,6.66666667 30.3333333,6.66666667 L33.6666667,6.66666667 Z" id="形状结合"></path>
                </g>
            </g>
        </g>
    </g>
</svg>