<?xml version="1.0" encoding="UTF-8"?>
<svg width="24px" height="24px" viewBox="0 0 24 24" version="1.1" xmlns="http://www.w3.org/2000/svg" xmlns:xlink="http://www.w3.org/1999/xlink">
    <title>Icons / 垃圾桶</title>
    <g id="Icons-/-垃圾桶" stroke="none" stroke-width="1" fill="none" fill-rule="evenodd" fill-opacity="0.8">
        <path d="M18.7485187,5.80952381 L18.7585447,5.81136762 L21.3301447,5.81136762 C21.7000956,5.81136762 22,6.09172835 22,6.43757084 C22,6.78341333 21.7000956,7.06377406 21.3301447,7.06377406 L21.3301447,7.06377406 L19.4186205,7.06377406 L19.4186205,19.5849191 C19.4186205,20.916302 18.2600363,22 16.835844,22 L16.835844,22 L7.16547094,22 C5.74127857,22 4.58269438,20.916302 4.58269438,19.5849191 L4.58269438,19.5849191 L4.58269438,7.06377406 L2.66985528,7.06377406 C2.29990442,7.06377406 2,6.78341333 2,6.43757084 C2,6.09172835 2.29990442,5.81136762 2.66985528,5.81136762 L2.66985528,5.81136762 L5.24277015,5.81136762 L5.24277015,5.81136762 L5.25263184,5.80952381 L5.25263184,5.80952381 L5.26249353,5.81136762 L18.738657,5.81136762 L18.738657,5.81136762 L18.7485187,5.80952381 L18.7485187,5.80952381 Z M18.0787456,7.06377406 L5.9225693,7.06377406 L5.9225693,19.5849191 C5.9225693,20.225796 6.48024786,20.7474399 7.16547094,20.7474399 L7.16547094,20.7474399 L16.8356796,20.7474399 C17.5212314,20.7474399 18.0787456,20.2259496 18.0787456,19.5849191 L18.0787456,19.5849191 L18.0787456,7.06377406 Z M8.33426643,9.75558824 C8.7330958,9.75558824 9.05641089,10.0456994 9.05641089,10.4035697 L9.05641089,10.4035697 L9.05641089,17.5424945 C9.05641089,17.9003648 8.7330958,18.1904761 8.33426643,18.1904761 C8.14269669,18.1904761 7.95896224,18.1222407 7.82351859,18.000677 C7.68807494,17.8791134 7.61202793,17.7142314 7.61212188,17.5423356 L7.61212188,17.5423356 L7.61212188,10.4035697 C7.61212188,10.0456994 7.93543705,9.75558824 8.33426643,9.75558824 Z M11.9997342,9.75558824 C12.3985636,9.75558824 12.7218787,10.0456994 12.7218787,10.4035697 L12.7218787,10.4035697 L12.7218787,17.5424945 C12.7219257,17.7143628 12.6458579,17.879204 12.5104194,18.0007332 C12.3749808,18.1222625 12.1912733,18.1904761 11.9997342,18.1904761 C11.8081645,18.1904761 11.62443,18.1222407 11.4889864,18.000677 C11.3535427,17.8791134 11.2774957,17.7142314 11.2775897,17.5423356 L11.2775897,17.5423356 L11.2775897,10.4035697 C11.2775897,10.0456994 11.6009049,9.75558824 11.9997342,9.75558824 Z M15.6659107,9.75574722 C16.0650745,9.75574722 16.3878782,10.0457174 16.3878782,10.4035697 L16.3878782,10.4035697 L16.3878782,17.5424945 C16.3880191,17.7143611 16.3120059,17.8792272 16.1765853,18.0007702 C16.0411646,18.1223132 15.8574479,18.1905605 15.6659107,18.1904761 C15.4743266,18.1905605 15.2905648,18.1222965 15.1551109,18.0007237 C15.019657,17.8791509 14.9436252,17.7142443 14.9437661,17.5423356 L14.9437661,17.5423356 L14.9437661,10.4035697 C14.9437661,10.0457174 15.266747,9.75574722 15.6659107,9.75574722 Z M12.0004429,2 C14.8507521,2 17.0001771,3.06783409 17,4.48398209 C17,4.65580824 16.9239979,4.82060894 16.7885926,4.94210838 C16.6531872,5.06360781 16.4695247,5.1318468 16.2780327,5.13180464 C16.0865244,5.13184679 15.9028436,5.06361287 15.7674102,4.94211801 C15.6319767,4.82062315 15.5558882,4.65582286 15.5558882,4.48398209 C15.5558882,4.01087293 14.1378204,3.29580403 12.0004429,3.29580403 C9.86271105,3.29580403 8.44428893,4.01087293 8.44428893,4.48398209 C8.44419109,4.84179031 8.12090466,5.13180464 7.72214446,5.13180464 C7.32338427,5.13180464 7,4.84179031 7,4.48398209 C7,3.06783409 9.14977942,2 12.0004429,2 Z" id="形状结合" fill="#000000"></path>
    </g>
</svg>