<?xml version="1.0" encoding="UTF-8"?>
<svg width="24px" height="24px" viewBox="0 0 24 24" version="1.1" xmlns="http://www.w3.org/2000/svg" xmlns:xlink="http://www.w3.org/1999/xlink">
    <title>Icons / 添加</title>
    <g id="Icons-/-添加" stroke="none" stroke-width="1" fill="none" fill-rule="evenodd" fill-opacity="0.8">
        <path d="M12,2.5 C12.5522847,2.5 13,2.94771525 13,3.5 L13,11 L20.5,11 C21.0522847,11 21.5,11.4477153 21.5,12 C21.5,12.5522847 21.0522847,13 20.5,13 L13,13 L13,20.5 C13,21.0522847 12.5522847,21.5 12,21.5 C11.4477153,21.5 11,21.0522847 11,20.5 L11,13 L3.5,13 C2.94771525,13 2.5,12.5522847 2.5,12 C2.5,11.4477153 2.94771525,11 3.5,11 L11,11 L11,3.5 C11,2.94771525 11.4477153,2.5 12,2.5 Z" id="形状结合" fill="#000000"></path>
    </g>
</svg>